<?xml version="1.0" standalone="no"?>
<!DOCTYPE svg PUBLIC "-//W3C//DTD SVG 20010904//EN"
 "http://www.w3.org/TR/2001/REC-SVG-20010904/DTD/svg10.dtd">
<svg version="1.0" xmlns="http://www.w3.org/2000/svg"
 width="180.000000pt" height="100.000000pt" viewBox="0 0 180.000000 100.000000"
 preserveAspectRatio="xMidYMid meet">

<g transform="translate(0.000000,100.000000) scale(0.100000,-0.100000)"
fill="#000000" stroke="none">
<path d="M1015 930 c-3 -6 1 -7 9 -4 18 7 21 14 7 14 -6 0 -13 -4 -16 -10z"/>
<path d="M1016 893 c-4 -9 3 -9 25 -1 36 12 37 16 4 14 -14 0 -27 -6 -29 -13z"/>
<path d="M507 833 c-13 -12 -7 -21 18 -27 14 -4 23 -11 20 -16 -3 -6 -1 -10 4
-10 18 0 12 19 -9 30 -11 6 -18 15 -15 21 7 10 -8 13 -18 2z"/>
<path d="M615 830 c3 -5 -1 -10 -9 -10 -9 0 -16 -5 -16 -10 0 -7 7 -7 20 0 17
9 20 30 4 30 -3 0 -2 -4 1 -10z"/>
<path d="M700 830 c-18 -12 -2 -12 25 0 13 6 15 9 5 9 -8 0 -22 -4 -30 -9z"/>
<path d="M650 810 c-9 -6 -10 -10 -3 -10 6 0 15 5 18 10 8 12 4 12 -15 0z"/>
<path d="M353 723 c9 -2 23 -2 30 0 6 3 -1 5 -18 5 -16 0 -22 -2 -12 -5z"/>
<path d="M374 665 c3 -9 6 -70 6 -136 l0 -119 80 0 c97 0 107 18 13 22 l-68 3
-3 48 -3 47 60 0 c48 0 61 3 61 15 0 12 -13 15 -61 15 l-61 0 3 43 4 42 70 5
c39 3 69 9 68 15 -2 6 -42 11 -89 13 -76 2 -86 1 -80 -13z"/>
<path d="M1250 655 c0 -22 4 -25 35 -25 l35 0 0 -110 0 -110 25 0 25 0 0 110
0 110 35 0 c31 0 35 3 35 25 0 25 0 25 -95 25 -95 0 -95 0 -95 -25z"/>
<path d="M1447 590 c-15 -12 -29 -36 -33 -55 -7 -42 11 -102 36 -115 25 -13
86 -13 111 1 32 17 6 39 -37 32 -32 -5 -64 8 -64 28 0 4 28 9 63 11 l62 3 -3
35 c-5 69 -81 102 -135 60z m83 -40 c10 -18 8 -20 -30 -20 -38 0 -40 2 -30 20
6 11 19 20 30 20 11 0 24 -9 30 -20z"/>
<path d="M1645 585 c-20 -19 -25 -34 -25 -73 0 -70 27 -102 85 -102 49 0 74
20 51 39 -9 7 -24 10 -36 6 -31 -10 -50 12 -50 56 0 42 22 64 51 48 12 -6 22
-3 34 11 16 17 16 19 -4 29 -34 19 -80 13 -106 -14z"/>
<path d="M590 522 c0 -99 11 -112 93 -110 l58 2 -3 89 c-2 61 -7 92 -15 95
-10 3 -13 -14 -13 -63 0 -77 -12 -105 -44 -105 -35 0 -45 19 -48 95 -2 43 -8
70 -15 73 -10 3 -13 -17 -13 -76z"/>
<path d="M787 593 c-4 -3 -7 -46 -7 -95 0 -72 3 -88 15 -88 12 0 15 14 15 69
0 76 11 95 56 89 16 -2 29 2 31 9 7 19 -26 28 -58 16 -16 -7 -29 -7 -29 -2 0
11 -14 12 -23 2z"/>
<path d="M945 575 c-19 -18 -25 -35 -25 -68 0 -60 29 -97 76 -97 52 0 74 28
74 94 0 47 -4 57 -26 75 -35 28 -69 26 -99 -4z m96 -32 c13 -34 1 -92 -23
-106 -12 -8 -24 -7 -42 1 -23 10 -26 18 -26 60 0 55 12 72 52 72 22 0 31 -7
39 -27z"/>
<path d="M1120 465 c0 -113 2 -135 15 -135 11 0 15 11 15 43 l0 42 45 -3 c44
-4 46 -3 61 34 35 84 -11 172 -77 147 -17 -7 -31 -7 -35 -2 -18 29 -24 -4 -24
-126z m104 99 c19 -19 22 -104 4 -122 -7 -7 -21 -12 -33 -12 -32 0 -45 20 -45
69 0 67 38 101 74 65z"/>
<path d="M1058 254 c-3 -2 -34 -11 -69 -19 -62 -13 -62 -13 -21 -14 34 -1 45
-5 53 -23 8 -20 9 -20 4 6 -6 26 -4 28 19 24 14 -3 23 -2 21 3 -3 4 0 9 7 11
8 3 9 6 1 11 -5 4 -13 4 -15 1z"/>
<path d="M715 154 c-75 -22 -77 -23 -33 -21 26 2 50 6 54 9 3 4 13 4 21 1 8
-3 18 -1 22 4 3 5 15 15 26 21 30 17 1 13 -90 -14z"/>
<path d="M558 113 c6 -2 18 -2 25 0 6 3 1 5 -13 5 -14 0 -19 -2 -12 -5z"/>
<path d="M283 79 c-18 -5 -33 -11 -33 -12 0 -2 16 -3 35 -4 19 -1 35 3 35 9 0
5 5 6 10 3 6 -3 10 -1 10 4 0 13 -13 13 -57 0z"/>
</g>
</svg>
